<mxfile modified="2021-05-17T07:54:56.401Z" host="app.diagrams.net" agent="5.0 (X11; Linux x86_64) AppleWebKit/537.36 (KHTML, like Gecko) Chrome/90.0.4430.93 Safari/537.36" etag="Hy6BPnVaGImIweUj0M8N" version="14.6.11" type="github">
  <diagram id="d1ab7348-05c3-a1e3-ca4d-12c340fd6b49" name="Page-1">
    <mxGraphModel dx="1350" dy="774" grid="1" gridSize="10" guides="1" tooltips="1" connect="1" arrows="1" fold="1" page="1" pageScale="1" pageWidth="1169" pageHeight="827" background="#ffffff" math="0" shadow="0">
      <root>
        <mxCell id="0" />
        <mxCell id="1" parent="0" />
        <mxCell id="9" value="Architecture: First Party Applications" style="fillColor=#4DA1F5;strokeColor=none;shadow=1;gradientColor=none;fontSize=14;align=left;spacingLeft=50;fontColor=#ffffff;html=1;" parent="1" vertex="1">
          <mxGeometry x="110" y="40" width="950" height="40" as="geometry" />
        </mxCell>
        <mxCell id="44_QHsM1Jb9pdZEY4SZs-172" value="" style="group" vertex="1" connectable="0" parent="1">
          <mxGeometry x="290" y="140" width="630" height="130" as="geometry" />
        </mxCell>
        <mxCell id="44_QHsM1Jb9pdZEY4SZs-164" value="" style="rounded=0;whiteSpace=wrap;html=1;dashed=1;" vertex="1" parent="44_QHsM1Jb9pdZEY4SZs-172">
          <mxGeometry width="630" height="130" as="geometry" />
        </mxCell>
        <mxCell id="44_QHsM1Jb9pdZEY4SZs-165" value="" style="rounded=1;whiteSpace=wrap;html=1;" vertex="1" parent="44_QHsM1Jb9pdZEY4SZs-172">
          <mxGeometry x="40" y="35" width="120" height="60" as="geometry" />
        </mxCell>
        <mxCell id="44_QHsM1Jb9pdZEY4SZs-166" value="" style="rounded=1;whiteSpace=wrap;html=1;" vertex="1" parent="44_QHsM1Jb9pdZEY4SZs-172">
          <mxGeometry x="250" y="35" width="120" height="60" as="geometry" />
        </mxCell>
        <mxCell id="44_QHsM1Jb9pdZEY4SZs-167" value="" style="rounded=1;whiteSpace=wrap;html=1;" vertex="1" parent="44_QHsM1Jb9pdZEY4SZs-172">
          <mxGeometry x="470" y="35" width="120" height="60" as="geometry" />
        </mxCell>
        <mxCell id="44_QHsM1Jb9pdZEY4SZs-168" value="Mobile Browser" style="text;html=1;strokeColor=none;fillColor=none;align=center;verticalAlign=middle;whiteSpace=wrap;rounded=0;" vertex="1" parent="44_QHsM1Jb9pdZEY4SZs-172">
          <mxGeometry x="55" y="55" width="90" height="20" as="geometry" />
        </mxCell>
        <mxCell id="44_QHsM1Jb9pdZEY4SZs-169" value="Web Browser" style="text;html=1;strokeColor=none;fillColor=none;align=center;verticalAlign=middle;whiteSpace=wrap;rounded=0;" vertex="1" parent="44_QHsM1Jb9pdZEY4SZs-172">
          <mxGeometry x="265" y="55" width="90" height="20" as="geometry" />
        </mxCell>
        <mxCell id="44_QHsM1Jb9pdZEY4SZs-171" value="Application" style="text;html=1;strokeColor=none;fillColor=none;align=center;verticalAlign=middle;whiteSpace=wrap;rounded=0;" vertex="1" parent="44_QHsM1Jb9pdZEY4SZs-172">
          <mxGeometry x="485" y="55" width="90" height="20" as="geometry" />
        </mxCell>
        <mxCell id="44_QHsM1Jb9pdZEY4SZs-173" value="" style="group" vertex="1" connectable="0" parent="1">
          <mxGeometry x="290" y="340" width="630" height="140" as="geometry" />
        </mxCell>
        <mxCell id="44_QHsM1Jb9pdZEY4SZs-174" value="" style="rounded=0;whiteSpace=wrap;html=1;dashed=1;" vertex="1" parent="44_QHsM1Jb9pdZEY4SZs-173">
          <mxGeometry width="630" height="130" as="geometry" />
        </mxCell>
        <mxCell id="44_QHsM1Jb9pdZEY4SZs-175" value="" style="rounded=1;whiteSpace=wrap;html=1;" vertex="1" parent="44_QHsM1Jb9pdZEY4SZs-173">
          <mxGeometry x="40" y="35" width="120" height="60" as="geometry" />
        </mxCell>
        <mxCell id="44_QHsM1Jb9pdZEY4SZs-176" value="" style="rounded=1;whiteSpace=wrap;html=1;" vertex="1" parent="44_QHsM1Jb9pdZEY4SZs-173">
          <mxGeometry x="250" y="35" width="120" height="60" as="geometry" />
        </mxCell>
        <mxCell id="44_QHsM1Jb9pdZEY4SZs-177" value="" style="rounded=1;whiteSpace=wrap;html=1;" vertex="1" parent="44_QHsM1Jb9pdZEY4SZs-173">
          <mxGeometry x="470" y="35" width="120" height="60" as="geometry" />
        </mxCell>
        <mxCell id="44_QHsM1Jb9pdZEY4SZs-178" value="FaaS" style="text;html=1;strokeColor=none;fillColor=none;align=center;verticalAlign=middle;whiteSpace=wrap;rounded=0;" vertex="1" parent="44_QHsM1Jb9pdZEY4SZs-173">
          <mxGeometry x="55" y="55" width="90" height="20" as="geometry" />
        </mxCell>
        <mxCell id="44_QHsM1Jb9pdZEY4SZs-179" value="FMS" style="text;html=1;strokeColor=none;fillColor=none;align=center;verticalAlign=middle;whiteSpace=wrap;rounded=0;" vertex="1" parent="44_QHsM1Jb9pdZEY4SZs-173">
          <mxGeometry x="265" y="55" width="90" height="20" as="geometry" />
        </mxCell>
        <mxCell id="44_QHsM1Jb9pdZEY4SZs-180" value="OrderManfestation" style="text;html=1;strokeColor=none;fillColor=none;align=center;verticalAlign=middle;whiteSpace=wrap;rounded=0;" vertex="1" parent="44_QHsM1Jb9pdZEY4SZs-173">
          <mxGeometry x="485" y="55" width="90" height="20" as="geometry" />
        </mxCell>
        <mxCell id="44_QHsM1Jb9pdZEY4SZs-209" value="" style="group" vertex="1" connectable="0" parent="44_QHsM1Jb9pdZEY4SZs-173">
          <mxGeometry x="30" y="90" width="590" height="50" as="geometry" />
        </mxCell>
        <mxCell id="44_QHsM1Jb9pdZEY4SZs-205" value="" style="rounded=0;whiteSpace=wrap;html=1;dashed=1;" vertex="1" parent="44_QHsM1Jb9pdZEY4SZs-209">
          <mxGeometry width="590" height="50" as="geometry" />
        </mxCell>
        <mxCell id="44_QHsM1Jb9pdZEY4SZs-206" value="" style="rounded=1;whiteSpace=wrap;html=1;" vertex="1" parent="44_QHsM1Jb9pdZEY4SZs-209">
          <mxGeometry x="49.16666666666667" y="11.538461538461538" width="491.6666666666667" height="23.076923076923077" as="geometry" />
        </mxCell>
        <mxCell id="44_QHsM1Jb9pdZEY4SZs-207" value="Shared Library" style="text;html=1;strokeColor=none;fillColor=none;align=center;verticalAlign=middle;whiteSpace=wrap;rounded=0;" vertex="1" parent="44_QHsM1Jb9pdZEY4SZs-209">
          <mxGeometry x="196.66666666666669" y="19.230769230769234" width="196.66666666666669" height="7.6923076923076925" as="geometry" />
        </mxCell>
        <mxCell id="44_QHsM1Jb9pdZEY4SZs-226" value="" style="group" vertex="1" connectable="0" parent="44_QHsM1Jb9pdZEY4SZs-173">
          <mxGeometry x="100" y="15" width="110" height="40" as="geometry" />
        </mxCell>
        <mxCell id="44_QHsM1Jb9pdZEY4SZs-223" value="" style="rounded=0;whiteSpace=wrap;html=1;dashed=1;" vertex="1" parent="44_QHsM1Jb9pdZEY4SZs-226">
          <mxGeometry width="110" height="40" as="geometry" />
        </mxCell>
        <mxCell id="44_QHsM1Jb9pdZEY4SZs-224" value="" style="rounded=1;whiteSpace=wrap;html=1;" vertex="1" parent="44_QHsM1Jb9pdZEY4SZs-226">
          <mxGeometry x="18.333333333333336" y="6.153846153846154" width="73.33333333333334" height="27.692307692307693" as="geometry" />
        </mxCell>
        <mxCell id="44_QHsM1Jb9pdZEY4SZs-225" value="Application Manifest" style="text;html=1;strokeColor=none;fillColor=none;align=center;verticalAlign=middle;whiteSpace=wrap;rounded=0;" vertex="1" parent="44_QHsM1Jb9pdZEY4SZs-226">
          <mxGeometry x="36.66666666666667" y="15.384615384615385" width="36.66666666666667" height="6.153846153846154" as="geometry" />
        </mxCell>
        <mxCell id="44_QHsM1Jb9pdZEY4SZs-228" value="" style="group" vertex="1" connectable="0" parent="44_QHsM1Jb9pdZEY4SZs-173">
          <mxGeometry x="320" y="15" width="110" height="40" as="geometry" />
        </mxCell>
        <mxCell id="44_QHsM1Jb9pdZEY4SZs-229" value="" style="rounded=0;whiteSpace=wrap;html=1;dashed=1;" vertex="1" parent="44_QHsM1Jb9pdZEY4SZs-228">
          <mxGeometry width="110" height="40" as="geometry" />
        </mxCell>
        <mxCell id="44_QHsM1Jb9pdZEY4SZs-230" value="" style="rounded=1;whiteSpace=wrap;html=1;" vertex="1" parent="44_QHsM1Jb9pdZEY4SZs-228">
          <mxGeometry x="18.333333333333336" y="6.153846153846154" width="73.33333333333334" height="27.692307692307693" as="geometry" />
        </mxCell>
        <mxCell id="44_QHsM1Jb9pdZEY4SZs-231" value="Application Manifest" style="text;html=1;strokeColor=none;fillColor=none;align=center;verticalAlign=middle;whiteSpace=wrap;rounded=0;" vertex="1" parent="44_QHsM1Jb9pdZEY4SZs-228">
          <mxGeometry x="36.66666666666667" y="15.384615384615385" width="36.66666666666667" height="6.153846153846154" as="geometry" />
        </mxCell>
        <mxCell id="44_QHsM1Jb9pdZEY4SZs-240" value="" style="group" vertex="1" connectable="0" parent="44_QHsM1Jb9pdZEY4SZs-173">
          <mxGeometry x="520" y="15" width="110" height="40" as="geometry" />
        </mxCell>
        <mxCell id="44_QHsM1Jb9pdZEY4SZs-241" value="" style="rounded=0;whiteSpace=wrap;html=1;dashed=1;" vertex="1" parent="44_QHsM1Jb9pdZEY4SZs-240">
          <mxGeometry width="110" height="40" as="geometry" />
        </mxCell>
        <mxCell id="44_QHsM1Jb9pdZEY4SZs-242" value="" style="rounded=1;whiteSpace=wrap;html=1;" vertex="1" parent="44_QHsM1Jb9pdZEY4SZs-240">
          <mxGeometry x="18.333333333333336" y="6.153846153846154" width="73.33333333333334" height="27.692307692307693" as="geometry" />
        </mxCell>
        <mxCell id="44_QHsM1Jb9pdZEY4SZs-243" value="Application Manifest" style="text;html=1;strokeColor=none;fillColor=none;align=center;verticalAlign=middle;whiteSpace=wrap;rounded=0;" vertex="1" parent="44_QHsM1Jb9pdZEY4SZs-240">
          <mxGeometry x="36.66666666666667" y="15.384615384615385" width="36.66666666666667" height="6.153846153846154" as="geometry" />
        </mxCell>
        <mxCell id="44_QHsM1Jb9pdZEY4SZs-181" value="" style="group" vertex="1" connectable="0" parent="1">
          <mxGeometry x="290" y="540" width="630" height="130" as="geometry" />
        </mxCell>
        <mxCell id="44_QHsM1Jb9pdZEY4SZs-182" value="" style="rounded=0;whiteSpace=wrap;html=1;dashed=1;" vertex="1" parent="44_QHsM1Jb9pdZEY4SZs-181">
          <mxGeometry width="630" height="130" as="geometry" />
        </mxCell>
        <mxCell id="44_QHsM1Jb9pdZEY4SZs-183" value="" style="rounded=1;whiteSpace=wrap;html=1;" vertex="1" parent="44_QHsM1Jb9pdZEY4SZs-181">
          <mxGeometry x="40" y="35" width="120" height="60" as="geometry" />
        </mxCell>
        <mxCell id="44_QHsM1Jb9pdZEY4SZs-184" value="" style="rounded=1;whiteSpace=wrap;html=1;" vertex="1" parent="44_QHsM1Jb9pdZEY4SZs-181">
          <mxGeometry x="250" y="35" width="120" height="60" as="geometry" />
        </mxCell>
        <mxCell id="44_QHsM1Jb9pdZEY4SZs-185" value="" style="rounded=1;whiteSpace=wrap;html=1;" vertex="1" parent="44_QHsM1Jb9pdZEY4SZs-181">
          <mxGeometry x="470" y="35" width="120" height="60" as="geometry" />
        </mxCell>
        <mxCell id="44_QHsM1Jb9pdZEY4SZs-186" value="Platform Participant" style="text;html=1;strokeColor=none;fillColor=none;align=center;verticalAlign=middle;whiteSpace=wrap;rounded=0;" vertex="1" parent="44_QHsM1Jb9pdZEY4SZs-181">
          <mxGeometry x="55" y="55" width="90" height="20" as="geometry" />
        </mxCell>
        <mxCell id="44_QHsM1Jb9pdZEY4SZs-187" value="&lt;span&gt;Config Management&lt;/span&gt;" style="text;html=1;strokeColor=none;fillColor=none;align=center;verticalAlign=middle;whiteSpace=wrap;rounded=0;" vertex="1" parent="44_QHsM1Jb9pdZEY4SZs-181">
          <mxGeometry x="265" y="55" width="90" height="20" as="geometry" />
        </mxCell>
        <mxCell id="44_QHsM1Jb9pdZEY4SZs-188" value="UAA" style="text;html=1;strokeColor=none;fillColor=none;align=center;verticalAlign=middle;whiteSpace=wrap;rounded=0;" vertex="1" parent="44_QHsM1Jb9pdZEY4SZs-181">
          <mxGeometry x="485" y="55" width="90" height="20" as="geometry" />
        </mxCell>
        <mxCell id="44_QHsM1Jb9pdZEY4SZs-190" value="" style="rounded=0;whiteSpace=wrap;html=1;dashed=1;" vertex="1" parent="1">
          <mxGeometry x="290" y="750" width="630" height="130" as="geometry" />
        </mxCell>
        <mxCell id="44_QHsM1Jb9pdZEY4SZs-197" value="" style="shape=cylinder3;whiteSpace=wrap;html=1;boundedLbl=1;backgroundOutline=1;size=15;" vertex="1" parent="1">
          <mxGeometry x="570" y="775" width="60" height="80" as="geometry" />
        </mxCell>
        <mxCell id="44_QHsM1Jb9pdZEY4SZs-200" value="" style="shape=flexArrow;endArrow=classic;startArrow=classic;html=1;" edge="1" parent="1">
          <mxGeometry width="100" height="100" relative="1" as="geometry">
            <mxPoint x="599.5" y="330" as="sourcePoint" />
            <mxPoint x="599.5" y="280" as="targetPoint" />
          </mxGeometry>
        </mxCell>
        <mxCell id="44_QHsM1Jb9pdZEY4SZs-203" value="" style="shape=flexArrow;endArrow=classic;startArrow=classic;html=1;" edge="1" parent="1">
          <mxGeometry width="100" height="100" relative="1" as="geometry">
            <mxPoint x="599.5" y="530" as="sourcePoint" />
            <mxPoint x="599.5" y="480" as="targetPoint" />
          </mxGeometry>
        </mxCell>
        <mxCell id="44_QHsM1Jb9pdZEY4SZs-204" value="" style="shape=flexArrow;endArrow=classic;startArrow=classic;html=1;" edge="1" parent="1">
          <mxGeometry width="100" height="100" relative="1" as="geometry">
            <mxPoint x="599.5" y="730" as="sourcePoint" />
            <mxPoint x="599.5" y="680" as="targetPoint" />
          </mxGeometry>
        </mxCell>
      </root>
    </mxGraphModel>
  </diagram>
</mxfile>
